<?xml version="1.0" encoding="UTF-8"?>
<svg width="40px" height="33px" viewBox="0 0 40 33" version="1.1" xmlns="http://www.w3.org/2000/svg" xmlns:xlink="http://www.w3.org/1999/xlink">
    <!-- Generator: Sketch 64 (93537) - https://sketch.com -->
    <title>Display_icon_48</title>
    <desc>Created with Sketch.</desc>
    <g id="Page-1" stroke="none" stroke-width="1" fill="none" fill-rule="evenodd">
        <g id="Display_icon" transform="translate(-274.000000, -519.000000)">
            <g id="Display_icon_48" transform="translate(270.000000, 511.000000)">
                <g id="Display_icon_24" transform="translate(4.000000, 8.000000)" fill="#1E8E3E">
                    <path d="M36,0.02002 L4,0.02002 C1.8,0.02002 0.02,1.82002 0.02,4.02002 L0,28.02 C0,30.22 1.8,32.02 4,32.02 L36,32.02 C38.2,32.02 40,30.22 40,28.02 L40,4.02002 C40,1.80002 38.22,0.02002 36,0.02002 Z M24,28.02 L4,28.02 L4,20.02 L24,20.02 L24,28.02 Z M24,18.02 L4,18.02 L4,10.02002 L24,10.02002 L24,18.02 Z M36,28.02 L26,28.02 L26,10.02002 L36,10.02002 L36,28.02 Z" id="Shape"></path>
                </g>
                <rect id="Rectangle" x="0" y="0" width="48" height="48"></rect>
            </g>
        </g>
    </g>
</svg>